<svg
	xmlns="http://www.w3.org/2000/svg" viewBox="0 0 460.14 500">
	<defs>
		<style>.cls-1,.cls-12,.cls-3{fill:#d6d8e5;}.cls-1{opacity:0.4;}.cls-2{fill:#b1b4c4;}.cls-4{fill:#9ea1af;}.cls-5{fill:#e4e7f2;}.cls-6{fill:#fff;}.cls-7{fill:#e9eaf2;}.cls-8{fill:#dadce5;}.cls-9{opacity:0.05;}.cls-10{fill:#f5f7fc;}.cls-11{fill:#f9cb07;}.cls-12{opacity:0.3;}.cls-13{fill:#dd990e;}.cls-14{fill:#cc8b09;}.cls-15{fill:#e8a30a;}.cls-16{fill:#f9ca06;}.cls-17{fill:#d33d3d;}.cls-18{fill:#f4f4f4;}.cls-19{fill:#ff4d4d;}.cls-20{fill:#2b303f;}.cls-21{fill:#3a2c6d;}.cls-22{fill:#ffcea9;}.cls-23{fill:#38226d;}.cls-24{fill:#9c73ff;}.cls-25{fill:#8c50ff;}.cls-26{fill:#ededed;}.cls-27{fill:#bfbfbf;}.cls-28{fill:#e5e5e5;}.cls-29,.cls-33{fill:#3e7eff;}.cls-30,.cls-33{opacity:0.1;}.cls-31{opacity:0.15;}.cls-32{fill:#b7e200;}.cls-34{fill:#394051;}.cls-35{fill:#232733;}</style>
	</defs>
	<title>monitor_SVG</title>

<g id="monitor">
				<path class="cls-1" d="M305.54,350.25l-50.15-29c-3.61-2.08-3.16-5.73,1-8.14l32.48-18.76,63.24,36.51-32.49,18.76C315.47,352.07,309.15,352.33,305.54,350.25Z"/>
				<path class="cls-2" d="M310.06,347.59l-50.14-28.95c-3.62-2.09-3.16-5.73,1-8.14l32.49-18.76,63.24,36.51L324.17,347C320,349.42,313.68,349.68,310.06,347.59Z"/>
				<polygon class="cls-2" points="356.66 328.25 356.66 326.34 353.74 328.02 356.66 328.25"/>
				<polygon class="cls-2" points="257.48 315.19 257.48 313.25 260.48 314.49 257.48 315.19"/>
				<path class="cls-3" d="M310.06,345.68l-50.14-28.95c-3.62-2.09-3.16-5.74,1-8.15l32.49-18.75,63.24,36.51-32.49,18.75C320,347.5,313.68,347.77,310.06,345.68Z"/>
				<polygon class="cls-4" points="293.59 289.91 285.76 263.95 349.69 300.61 356.66 326.34 293.59 289.91"/>
				<path class="cls-4" d="M354.8,327.41l1.86-1.07-2.76-2.2Z"/>
				<polygon class="cls-2" points="291.57 290.89 283.75 264.92 347.68 301.59 354.8 327.41 291.57 290.89"/>
				<path class="cls-2" d="M453.85,371.17,206.4,228.3c-3.47-2-6.28-7.38-6.28-12V24.88c0-4.63,2.81-6.76,6.28-4.75L453.85,163c3.48,2,6.29,7.38,6.29,12V366.42C460.14,371.05,457.33,373.17,453.85,371.17Z"/>
				<polygon class="cls-2" points="455.13 373.14 457.87 371.56 456.69 363.43 455.13 373.14"/>
				<path class="cls-2" d="M199.67,21.31l2.7-1.56L206.25,22s-4.13.63-4.23.61S199.67,21.31,199.67,21.31Z"/>
				<path class="cls-5" d="M451.59,372.48,204.13,229.61c-3.47-2-6.28-7.38-6.28-12V26.19c0-4.63,2.81-6.76,6.28-4.75L451.59,164.31c3.47,2,6.28,7.38,6.28,12V367.73C457.87,372.36,455.06,374.48,451.59,372.48Z"/>
				<path class="cls-3" d="M457.44,176.56V368c0,4.64-2.82,6.77-6.29,4.75L203.69,229.86c-3.47-2-6.28-7.38-6.28-12V26.44c0-4.63,2.81-6.75,6.28-4.75L451.15,164.56C454.62,166.56,457.44,171.94,457.44,176.56Z"/>
				<path class="cls-6" d="M454,361.09,200.55,214.74l.14-187.53c0-1.93,1.34-2.7,3-1.74L451.15,168.33a6.67,6.67,0,0,1,3,5.22Z"/>
				<path class="cls-7" d="M438.34,198.06,213.65,68.33a6.09,6.09,0,0,1-2.56-4.88V47.23c0-1.88,1.14-2.75,2.56-1.93L438.34,175a6.15,6.15,0,0,1,2.56,4.89v16.22C440.9,198,439.75,198.88,438.34,198.06Z"/>
				<ellipse class="cls-8" cx="221.38" cy="61.21" rx="4.02" ry="6.96" transform="translate(-0.94 118.9) rotate(-30)"/>
				<path class="cls-8" d="M338.2,130.8l-19.43-11.23a1.51,1.51,0,0,1-.64-1.22v-2.57c0-.48.28-.69.64-.49l19.43,11.23a1.51,1.51,0,0,1,.64,1.22v2.57C338.84,130.78,338.56,131,338.2,130.8Z"/>
				<path class="cls-8" d="M369.66,149l-19.43-11.22a1.52,1.52,0,0,1-.64-1.22v-2.58c0-.47.28-.69.64-.48l19.43,11.22a1.51,1.51,0,0,1,.64,1.22v2.58C370.3,149,370,149.16,369.66,149Z"/>
				<path class="cls-8" d="M400.61,166.83l-19.44-11.22a1.57,1.57,0,0,1-.64-1.23v-2.57c0-.47.29-.69.64-.49l19.44,11.23a1.51,1.51,0,0,1,.64,1.22v2.57C401.25,166.82,401,167,400.61,166.83Z"/>
				<path class="cls-8" d="M432.07,185l-19.44-11.22a1.55,1.55,0,0,1-.64-1.22V170c0-.47.29-.69.64-.48l19.44,11.22a1.53,1.53,0,0,1,.64,1.22v2.58C432.71,185,432.42,185.2,432.07,185Z"/>
				<path class="cls-7" d="M421.33,238.33l-52.82-30.5A6.11,6.11,0,0,1,366,203V168.86c0-1.88,1.14-2.74,2.55-1.93l52.82,30.49a6.15,6.15,0,0,1,2.56,4.89v34.08C423.89,238.28,422.74,239.14,421.33,238.33Z"/>
				<path class="cls-7" d="M351.76,249.4,219.27,172.9a3.07,3.07,0,0,1-1.28-2.44v-5.87c0-.94.58-1.37,1.28-1l132.49,76.49a3.05,3.05,0,0,1,1.28,2.44v5.87C353,249.37,352.47,249.8,351.76,249.4Z"/>
				<path class="cls-7" d="M338.72,255.75,219.66,187a3.05,3.05,0,0,1-1.28-2.44v-2.92c0-.94.57-1.38,1.28-1l119.06,68.74a3.08,3.08,0,0,1,1.28,2.44v2.92C340,255.72,339.42,256.16,338.72,255.75Z"/>
				<path class="cls-7" d="M338.72,266.82,219.66,198.09a3.07,3.07,0,0,1-1.28-2.45v-2.92c0-.94.57-1.37,1.28-1l119.06,68.73a3.1,3.1,0,0,1,1.28,2.45v2.92C340,266.8,339.42,267.23,338.72,266.82Z"/>
				<path class="cls-7" d="M308.28,260.33l-88.62-51.17a3.05,3.05,0,0,1-1.28-2.44V203.8c0-.94.57-1.38,1.28-1L308.28,254a3,3,0,0,1,1.28,2.44v2.92C309.56,260.3,309,260.73,308.28,260.33Z"/>
				<path class="cls-7" d="M422.61,252.5l-55.37-32a3.05,3.05,0,0,1-1.28-2.44v-2.92c0-.94.57-1.38,1.28-1l55.37,32a3.06,3.06,0,0,1,1.28,2.45v2.92C423.89,252.48,423.32,252.91,422.61,252.5Z"/>
				<path class="cls-7" d="M422.61,263.58l-55.37-32a3.06,3.06,0,0,1-1.28-2.45v-2.92c0-.94.57-1.37,1.28-1l55.37,32a3.05,3.05,0,0,1,1.28,2.44v2.92C423.89,263.55,423.32,264,422.61,263.58Z"/>
				<path class="cls-7" d="M408.11,266.28l-40.87-23.6a3.05,3.05,0,0,1-1.28-2.44v-2.92c0-.94.57-1.38,1.28-1L408.11,260a3.06,3.06,0,0,1,1.28,2.45v2.91C409.39,266.26,408.82,266.69,408.11,266.28Z"/>
				<path class="cls-7" d="M421.33,323.68l-52.82-30.5A6.11,6.11,0,0,1,366,288.3V254.21c0-1.88,1.14-2.75,2.55-1.93l52.82,30.49a6.15,6.15,0,0,1,2.56,4.89v34.08C423.89,323.63,422.74,324.49,421.33,323.68Z"/>
				<path class="cls-7" d="M422.61,337.85l-55.37-32a3.05,3.05,0,0,1-1.28-2.44v-2.92c0-.94.57-1.38,1.28-1l55.37,32a3.06,3.06,0,0,1,1.28,2.45v2.92C423.89,337.83,423.32,338.26,422.61,337.85Z"/>
				<polygon class="cls-8" points="383.92 201.63 380.21 192.08 373.46 201.68 380.87 205.96 386.96 209.48 400.54 217.32 390.71 191.97 383.92 201.63"/>
				<ellipse class="cls-8" cx="411.28" cy="202.07" rx="3.61" ry="6.26" transform="translate(-45.93 232.72) rotate(-30)"/>
				<polygon class="cls-8" points="384.3 288.24 380.6 278.69 373.85 288.29 381.26 292.57 387.35 296.08 400.93 303.92 391.09 278.58 384.3 288.24"/>
				<ellipse class="cls-8" cx="411.66" cy="288.67" rx="3.61" ry="6.26" transform="matrix(0.87, -0.5, 0.5, 0.87, -89.18, 244.52)"/>
				<path class="cls-7" d="M350.23,224.61,221.87,150.87a5.48,5.48,0,0,1-2.3-4.38V86.68c0-1.68,1-2.46,2.3-1.73l128.36,73.74a5.5,5.5,0,0,1,2.29,4.38v59.81C352.52,224.57,351.49,225.35,350.23,224.61Z"/>
				<polygon class="cls-8" points="257.53 149.3 251.19 132.97 239.65 149.39 252.32 156.7 262.73 162.71 285.95 176.12 269.13 132.78 257.53 149.3"/>
				<ellipse class="cls-8" cx="327.9" cy="167.05" rx="6.18" ry="10.7" transform="translate(-39.6 186.34) rotate(-30)"/>
			</g>

</svg>